<mxfile host="app.diagrams.net" agent="Mozilla/5.0 (Windows NT 10.0; Win64; x64) AppleWebKit/537.36 (KHTML, like Gecko) Chrome/138.0.0.0 Safari/537.36 Edg/138.0.0.0" version="28.0.6">
  <diagram name="Page-1" id="L9P3y5sABZvln70rL-t9">
    <mxGraphModel dx="1144" dy="660" grid="1" gridSize="10" guides="1" tooltips="1" connect="1" arrows="1" fold="1" page="1" pageScale="1" pageWidth="850" pageHeight="1100" math="0" shadow="0">
      <root>
        <mxCell id="0" />
        <mxCell id="1" parent="0" />
        <mxCell id="F3cPZaWXSn8m7NxwVwCj-1" value="" style="whiteSpace=wrap;strokeWidth=2;" vertex="1" parent="1">
          <mxGeometry x="371" y="180" width="289" height="230" as="geometry" />
        </mxCell>
        <mxCell id="F3cPZaWXSn8m7NxwVwCj-14" style="edgeStyle=orthogonalEdgeStyle;rounded=0;orthogonalLoop=1;jettySize=auto;html=1;exitX=1;exitY=0.75;exitDx=0;exitDy=0;entryX=0;entryY=0.5;entryDx=0;entryDy=0;" edge="1" parent="1" source="F3cPZaWXSn8m7NxwVwCj-2" target="F3cPZaWXSn8m7NxwVwCj-12">
          <mxGeometry relative="1" as="geometry" />
        </mxCell>
        <mxCell id="F3cPZaWXSn8m7NxwVwCj-15" style="edgeStyle=orthogonalEdgeStyle;rounded=0;orthogonalLoop=1;jettySize=auto;html=1;exitX=1;exitY=0.25;exitDx=0;exitDy=0;entryX=0;entryY=0.25;entryDx=0;entryDy=0;" edge="1" parent="1" source="F3cPZaWXSn8m7NxwVwCj-2" target="F3cPZaWXSn8m7NxwVwCj-3">
          <mxGeometry relative="1" as="geometry" />
        </mxCell>
        <mxCell id="F3cPZaWXSn8m7NxwVwCj-2" value="&lt;font style=&quot;font-size: 14px;&quot;&gt;&lt;b&gt;Administrador&lt;/b&gt;&lt;/font&gt;" style="shape=umlActor;verticalLabelPosition=bottom;verticalAlign=top;html=1;outlineConnect=0;" vertex="1" parent="1">
          <mxGeometry x="160" y="283" width="40" height="54" as="geometry" />
        </mxCell>
        <mxCell id="F3cPZaWXSn8m7NxwVwCj-3" value="Gestionar Usuarios" style="rounded=1;arcSize=20;strokeWidth=2;fontSize=14;fontStyle=1" vertex="1" parent="1">
          <mxGeometry x="461.5" y="255" width="148.5" height="54" as="geometry" />
        </mxCell>
        <mxCell id="F3cPZaWXSn8m7NxwVwCj-5" value="&lt;font style=&quot;font-size: 14px;&quot;&gt;&lt;b&gt;Sistema de GestiÃ³n de Gimnasio&lt;/b&gt;&lt;/font&gt;" style="text;html=1;align=center;verticalAlign=middle;whiteSpace=wrap;rounded=0;" vertex="1" parent="1">
          <mxGeometry x="450" y="190" width="150" height="50" as="geometry" />
        </mxCell>
        <mxCell id="F3cPZaWXSn8m7NxwVwCj-12" value="Ver Reportes Financieros" style="rounded=1;arcSize=20;strokeWidth=2;fontSize=14;fontStyle=1" vertex="1" parent="1">
          <mxGeometry x="450" y="337" width="183" height="54" as="geometry" />
        </mxCell>
      </root>
    </mxGraphModel>
  </diagram>
</mxfile>
